# xmcd
#
# Track frame offsets: 
#        150
#        13315
#        26247
#        38327
#        49815
#        66740
#        81375
#        95155
#        107945
#        119602
#        132940
#        145577
#        157122
#        168255
#        179837
#        191370
#        202157
#        213912
#
# Disc length: 2980 seconds
#
# Revision: 4
# Processed by: cddbd v1.5.2PL0 Copyright (c) Steve Scherf et al.
# Submitted via: ExactAudioCopy v0.99pb5
#
DISCID=180ba212
DTITLE=Various Artist - The History Of Country Music - The Sixties - Volume 2
DTITLE=Various Artist - CD 1
DYEAR=1993
DGENRE=Country
TTITLE0=Hank Locklin - Please help me, I'm falling
TTITLE1=Jim Reeves - Distant drums
TTITLE2=Bill Anderson - My life (throw it away if I want to)
TTITLE3=Rusty and Doug Kershaw - Louisiana man
TTITLE4=Johnny Cash - A boy named Sue
TTITLE5=Marty Robbins - Don't worry
TTITLE6=Tom T. Hall - A week in a country jail
TTITLE7=Bobby Bare - Detroit City
TTITLE8=Porter Wagoner - Misery loves company
TTITLE9=David Houston - Almost persuaded
TTITLE10=Patsy Cline - I fall to pieces
TTITLE11=Jack Greene - There goes my everything
TTITLE12=Roger Miller - King of the road
TTITLE13=Roy Drusky and Pricilla Mitchell - Yes, Mr. Peters
TTITLE14=Conway Twitty - To see my angel cry
TTITLE15=Bill Carlisle - What kind of deal is this
TTITLE16=Kitty Wells - Heartbreak U.S.A.
TTITLE17=Jimmy Dean - The first thing ev'ry morning (and the last thin
TTITLE17=g ev'ry night)
EXTD=YEAR: 1993
EXTT0=
EXTT1=
EXTT2=
EXTT3=
EXTT4=
EXTT5=
EXTT6=
EXTT7=
EXTT8=
EXTT9=
EXTT10=
EXTT11=
EXTT12=
EXTT13=
EXTT14=
EXTT15=
EXTT16=
EXTT17=
PLAYORDER=
